<?xml version="1.0" encoding="utf-8"?>
<!-- Generator: Adobe Illustrator 19.1.0, SVG Export Plug-In . SVG Version: 6.00 Build 0)  -->
<svg version="1.2" baseProfile="tiny" id="Layer_1" xmlns="http://www.w3.org/2000/svg" xmlns:xlink="http://www.w3.org/1999/xlink"
	 x="0px" y="0px" viewBox="-23 25 32 32" xml:space="preserve">
<path fill="#FFFFFF" d="M-10,46c-1.1,0-1.9-0.9-1.9-1.9c0-1.1,0.9-1.9,1.9-1.9c1.1,0,1.9,0.9,1.9,1.9C-8.1,45.2-9,46-10,46z"/>
<path fill="#FFFFFF" d="M-5,46c0-4-3-6.9-7-6.9v-2c5,0,9,3.9,9,8.9H-5z"/>
<path fill="#FFFFFF" d="M-1,46c0-6-5-10.9-11-10.9V33c7,0,13,6,13,13H-1z"/>
</svg>
