<?xml version="1.0" encoding="utf-8"?>
<!-- Generator: Adobe Illustrator 19.2.1, SVG Export Plug-In . SVG Version: 6.00 Build 0)  -->
<svg version="1.2" baseProfile="tiny" id="Layer_1" xmlns="http://www.w3.org/2000/svg" xmlns:xlink="http://www.w3.org/1999/xlink"
	 x="0px" y="0px" viewBox="0 0 32 32" xml:space="preserve">
<path fill="#FFFFFF" d="M14.6,19.2c-0.5,2.8-1.2,5.4-3.1,6.8c-0.6-4.2,0.9-7.3,1.5-10.6c-1.1-1.9,0.1-5.8,2.6-4.9
	c3,1.2-2.6,7.2,1.1,7.9c3.9,0.8,5.5-6.7,3.1-9.2c-3.5-3.5-10.1-0.1-9.3,5c0.2,1.2,1.5,1.6,0.5,3.3c-2.2-0.5-2.9-2.3-2.8-4.6
	C8.3,9.1,11.6,6.4,15,6c4.2-0.5,8.1,1.5,8.7,5.5c0.6,4.5-1.9,9.3-6.4,8.9C16.1,20.4,15.6,19.8,14.6,19.2z"/>
</svg>
