<?xml version="1.0" encoding="utf-8"?>
<!-- Generator: Adobe Illustrator 19.1.0, SVG Export Plug-In . SVG Version: 6.00 Build 0)  -->
<svg version="1.2" baseProfile="tiny" id="Layer_1" xmlns="http://www.w3.org/2000/svg" xmlns:xlink="http://www.w3.org/1999/xlink"
	 x="0px" y="0px" viewBox="-23 25 32 32" xml:space="preserve">
<polygon fill="#FFFFFF" points="-10.9,47.6 -14.2,47.6 -14.2,37.2 -11,37.2 -11,47.6 "/>
<path fill="#FFFFFF" d="M-12.6,35.9c-1,0-1.7-0.7-1.7-1.6c0-0.9,0.7-1.6,1.7-1.6s1.7,0.7,1.7,1.6C-10.8,35.2-11.5,35.9-12.6,35.9z"
	/>
<path fill="#FFFFFF" d="M0.9,47.6h-3.2v-5.8c0-1.3-0.5-2.3-1.6-2.3c-0.9,0-1.4,0.6-1.7,1.2c-0.1,0.2-0.1,0.5-0.1,0.8v6H-9v-7.1
	c0-1.3,0-2.4-0.1-3.3h2.8l0.1,1.4h0.1c0.4-0.7,1.5-1.7,3.2-1.7c2.1,0,3.7,1.4,3.7,4.5L0.9,47.6L0.9,47.6z"/>
</svg>
