<?xml version="1.0" encoding="utf-8"?>
<!-- Generator: Adobe Illustrator 19.2.1, SVG Export Plug-In . SVG Version: 6.00 Build 0)  -->
<svg version="1.2" baseProfile="tiny" id="Layer_1" xmlns="http://www.w3.org/2000/svg" xmlns:xlink="http://www.w3.org/1999/xlink"
	 x="0px" y="0px" viewBox="0 0 32 32" xml:space="preserve">
<path fill="#FFFFFF" d="M23,7H9C7.9,7,7,7.9,7,9v14c0,1.1,0.9,2,2,2h14c1.1,0,2-0.9,2-2V9C25,7.9,24.1,7,23,7z M16,21.5
	c3.1,0,5.5-2.5,5.5-5.5c0-0.3,0-0.7-0.1-1H23v7.2c0,0.4-0.3,0.7-0.7,0.7H9.7c-0.4,0-0.7-0.3-0.7-0.7V15h1.5c-0.1,0.3-0.1,0.6-0.1,1
	C10.4,19,12.9,21.5,16,21.5z M12.5,16c0-1.9,1.6-3.5,3.5-3.5s3.5,1.5,3.5,3.5s-1.6,3.5-3.5,3.5C14.1,19.4,12.5,17.9,12.5,16z
	 M22.3,12h-1.6c-0.4,0-0.7-0.3-0.7-0.7V9.7C20,9.3,20.3,9,20.7,9h1.6C22.7,9,23,9.3,23,9.7v1.6C23,11.7,22.7,12,22.3,12z"/>
</svg>
