<?xml version="1.0" encoding="utf-8"?>
<!-- Generator: Adobe Illustrator 19.1.0, SVG Export Plug-In . SVG Version: 6.00 Build 0)  -->
<svg version="1.2" baseProfile="tiny" id="Layer_1" xmlns="http://www.w3.org/2000/svg" xmlns:xlink="http://www.w3.org/1999/xlink"
	 x="0px" y="0px" viewBox="-23 25 32 32" xml:space="preserve">
<g>
	<polygon fill="#FFFFFF" points="0.5,41 -2,41 -2,43.5 -3.6,43.5 -3.6,41 -6.1,41 -6.1,39.4 -3.6,39.4 -3.6,36.9 -2,36.9 -2,39.4 
		0.5,39.4 	"/>
	<path fill="#FFFFFF" d="M-6,33.6L-6,33.6l-3.9-0.1c0,0-3.9,0.2-3.9,3.7c0,1.3,0.4,2.2,1.2,2.7c0.7,0.4,1.5,0.5,1.9,0.5
		c0.1,0,0.1,0,0.2,0c0,0-0.1,0.9,0.5,1.7c-1.1,0-4.6,0.2-4.6,3.1c0,3,3.2,3.1,3.9,3.1c0.1,0,0.1,0,0.1,0s0,0,0.1,0
		c0.4,0,1.5,0,2.5-0.5c1.4-0.6,2-1.7,2-3.3c0-1.5-1-2.4-1.7-3c-0.4-0.4-0.8-0.8-0.8-1.1c0-0.3,0.2-0.6,0.6-0.9
		c0.6-0.5,1.1-1.2,1.1-2.6c0-1.3-0.1-2.1-1.1-2.6c0.1,0,0.4-0.1,0.6-0.1C-6.8,34.1-6,34-6,33.6z M-7.5,44.9c0,1.2-1,2.1-2.5,2.2
		c-1.6,0.1-2.8-0.6-2.9-1.8c0-0.6,0.2-1.2,0.7-1.6c0.5-0.5,1.2-0.7,1.9-0.8c0.1,0,0.2,0,0.3,0C-8.6,42.9-7.6,43.7-7.5,44.9z
		 M-9.6,39.5c-0.1,0-0.2,0-0.3,0c-0.9,0-1.7-0.8-2-2c-0.2-0.7-0.2-1.2,0-1.8c0.2-0.5,0.6-0.9,1-1c0.1,0,0.2,0,0.3,0
		c1,0,1.7,0.4,2.1,1.8C-8.2,37.8-8.7,39.2-9.6,39.5z"/>
</g>
</svg>
