<?xml version="1.0" encoding="utf-8"?>
<!-- Generator: Adobe Illustrator 19.2.1, SVG Export Plug-In . SVG Version: 6.00 Build 0)  -->
<svg version="1.1" id="Shopping_bag" xmlns="http://www.w3.org/2000/svg" xmlns:xlink="http://www.w3.org/1999/xlink" x="0px"
	 y="0px" viewBox="0 0 20 20" style="enable-background:new 0 0 20 20;" xml:space="preserve">
<style type="text/css">
	.st0{fill:#FFFFFF;}
</style>
<path class="st0" d="M18.1,3.3c-0.3-0.3-1.9-1.7-2.2-2C15.6,1,15.2,1,14.8,1H5.2C4.8,1,4.4,1,4.1,1.3C3.8,1.5,2.2,3,1.9,3.3
	C1.6,3.5,1.3,3.9,1.4,4.5c0.1,0.6,1.9,13.7,1.9,14C3.4,18.7,3.7,19,4,19h12c0.3,0,0.6-0.3,0.6-0.6c0-0.3,1.9-13.4,1.9-14
	C18.7,3.9,18.4,3.5,18.1,3.3z M10,12c-3.2,0-3.9-4.6-4.1-5.5h1.8C8,7.8,8.7,10.2,10,10.2s2-2.4,2.2-3.7h1.8C13.9,7.4,13.2,12,10,12z
	 M3.2,4L5,2h10l1.8,2H3.2z"/>
</svg>
