<?xml version="1.0" encoding="utf-8"?>
<!-- Generator: Adobe Illustrator 19.2.1, SVG Export Plug-In . SVG Version: 6.00 Build 0)  -->
<svg version="1.1" id="Layer_1" xmlns="http://www.w3.org/2000/svg" xmlns:xlink="http://www.w3.org/1999/xlink" x="0px" y="0px"
	 viewBox="0 0 32 32" style="enable-background:new 0 0 32 32;" xml:space="preserve">
<style type="text/css">
	.st0{fill:#FFFFFF;}
</style>
<path class="st0" d="M11.9,7l-6,3.7l4.1,3.4l5.9-3.9L11.9,7z M19.6,22.7c-0.1,0-0.2,0-0.3-0.1L16,19.9l-3.3,2.7
	c-0.1,0.1-0.2,0.1-0.3,0.1s-0.2,0-0.3-0.1L9.6,21v1l6.3,4l6.3-4v-0.9l-2.5,1.6C19.8,22.7,19.7,22.7,19.6,22.7z M26,10.7L20,7l-4,3.3
	l5.9,3.9L26,10.7z M16,17.8l3.7,3.1l5.9-3.9L22,14.1L16,17.8z M12.3,20.9l3.7-3.1l-5.9-3.7L6.4,17L12.3,20.9z"/>
</svg>
