<?xml version="1.0" encoding="utf-8"?>
<!-- Generator: Adobe Illustrator 20.1.0, SVG Export Plug-In . SVG Version: 6.00 Build 0)  -->
<svg version="1.1" id="Layer_1" xmlns="http://www.w3.org/2000/svg" xmlns:xlink="http://www.w3.org/1999/xlink" x="0px" y="0px"
	 viewBox="0 0 32 32" style="enable-background:new 0 0 32 32;" xml:space="preserve">
<style type="text/css">
	.st0{fill:#FFFFFF;}
</style>
<path class="st0" d="M23.9,10c0.3,0.6,0.5,1.3,0.5,2.2c0,2-0.8,3.6-2.5,4.9c-1.7,1.2-4.1,1.8-7.1,1.8H14c-0.5,0-1.1,0.4-1.2,0.9
	L12,23.5c-0.1,0.5-0.7,0.9-1.2,0.9H9.2L9.1,25c-0.1,0.6,0.2,1,0.7,1h2.5c0.5,0,1.1-0.4,1.2-0.9l0.9-3.6c0.1-0.5,0.7-0.9,1.2-0.9h0.7
	c3,0,5.4-0.6,7.1-1.8c1.7-1.2,2.5-2.9,2.5-4.9c0-0.9-0.2-1.6-0.5-2.2c-0.3-0.6-0.8-1.1-1.4-1.4C24,10.1,24,10,23.9,10z M10.4,22
	l0.9-3.6c0.1-0.5,0.7-0.9,1.2-0.9h0.7c3,0,5.4-0.6,7.1-1.8s2.5-2.9,2.5-4.9c0-0.9-0.2-1.6-0.5-2.2C22,7.9,21.6,7.4,21,7
	s-1.3-0.6-2.2-0.8C18,6.1,17,6,15.9,6h-5.2c-0.5,0-1.1,0.4-1.2,0.9L6,22c-0.1,0.5,0.2,0.9,0.8,0.9h2.5C9.8,22.9,10.3,22.5,10.4,22z
	 M12.4,13.3l0.7-3.2c0.1-0.5,0.7-0.9,1.2-0.9h0.8c1,0,1.7,0.2,2.2,0.5s0.7,0.8,0.7,1.5c0,1-0.4,1.8-1.1,2.3s-1.8,0.8-3.1,0.8h-0.6
	C12.7,14.2,12.3,13.8,12.4,13.3z"/>
</svg>
